<svg width="512" height="512" viewBox="0 0 512 512" xmlns="http://www.w3.org/2000/svg">
  <defs>
    <!-- Gradient Definitions -->
    <linearGradient id="bgGradient" x1="0%" y1="0%" x2="100%" y2="100%">
      <stop offset="0%" style="stop-color:#667eea;stop-opacity:1" />
      <stop offset="50%" style="stop-color:#764ba2;stop-opacity:1" />
      <stop offset="100%" style="stop-color:#f093fb;stop-opacity:1" />
    </linearGradient>
    
    <linearGradient id="checkGradient" x1="0%" y1="0%" x2="100%" y2="100%">
      <stop offset="0%" style="stop-color:#10b981;stop-opacity:1" />
      <stop offset="100%" style="stop-color:#059669;stop-opacity:1" />
    </linearGradient>
    
    <linearGradient id="taskGradient" x1="0%" y1="0%" x2="100%" y2="100%">
      <stop offset="0%" style="stop-color:#ffffff;stop-opacity:0.95" />
      <stop offset="100%" style="stop-color:#f8fafc;stop-opacity:0.85" />
    </linearGradient>
    
    <linearGradient id="sparkleGradient" x1="0%" y1="0%" x2="100%" y2="100%">
      <stop offset="0%" style="stop-color:#fbbf24;stop-opacity:1" />
      <stop offset="100%" style="stop-color:#f59e0b;stop-opacity:1" />
    </linearGradient>
    
    <!-- Shadow Filter -->
    <filter id="shadow" x="-50%" y="-50%" width="200%" height="200%">
      <feDropShadow dx="0" dy="8" stdDeviation="12" flood-color="#000000" flood-opacity="0.15"/>
    </filter>
    
    <!-- Glow Filter -->
    <filter id="glow" x="-50%" y="-50%" width="200%" height="200%">
      <feGaussianBlur stdDeviation="3" result="coloredBlur"/>
      <feMerge> 
        <feMergeNode in="coloredBlur"/>
        <feMergeNode in="SourceGraphic"/>
      </feMerge>
    </filter>
  </defs>
  
  <!-- Background Circle -->
  <circle cx="256" cy="256" r="240" fill="url(#bgGradient)" filter="url(#shadow)"/>
  
  <!-- Inner Circle for Depth -->
  <circle cx="256" cy="256" r="200" fill="none" stroke="rgba(255,255,255,0.1)" stroke-width="2"/>
  
  <!-- Main Task List Container -->
  <rect x="140" y="120" width="232" height="280" rx="24" ry="24" fill="url(#taskGradient)" filter="url(#shadow)" opacity="0.95"/>
  
  <!-- Task Items -->
  <!-- Task 1 - Completed -->
  <g opacity="0.9">
    <rect x="160" y="150" width="192" height="40" rx="8" ry="8" fill="rgba(16, 185, 129, 0.1)" stroke="rgba(16, 185, 129, 0.3)" stroke-width="1"/>
    <circle cx="180" cy="170" r="8" fill="url(#checkGradient)"/>
    <path d="M176 170 L179 173 L184 167" stroke="white" stroke-width="2" fill="none" stroke-linecap="round" stroke-linejoin="round"/>
    <rect x="200" y="165" width="80" height="4" rx="2" fill="rgba(16, 185, 129, 0.4)"/>
    <rect x="200" y="173" width="60" height="3" rx="1.5" fill="rgba(16, 185, 129, 0.3)"/>
  </g>
  
  <!-- Task 2 - Active -->
  <g opacity="0.9">
    <rect x="160" y="200" width="192" height="40" rx="8" ry="8" fill="rgba(59, 130, 246, 0.05)" stroke="rgba(59, 130, 246, 0.2)" stroke-width="1"/>
    <circle cx="180" cy="220" r="8" fill="none" stroke="rgba(59, 130, 246, 0.6)" stroke-width="2"/>
    <rect x="200" y="215" width="100" height="4" rx="2" fill="rgba(59, 130, 246, 0.7)"/>
    <rect x="200" y="223" width="70" height="3" rx="1.5" fill="rgba(59, 130, 246, 0.5)"/>
  </g>
  
  <!-- Task 3 - High Priority -->
  <g opacity="0.9">
    <rect x="160" y="250" width="192" height="40" rx="8" ry="8" fill="rgba(239, 68, 68, 0.05)" stroke="rgba(239, 68, 68, 0.3)" stroke-width="1"/>
    <circle cx="180" cy="270" r="8" fill="none" stroke="rgba(239, 68, 68, 0.6)" stroke-width="2"/>
    <rect x="200" y="265" width="90" height="4" rx="2" fill="rgba(239, 68, 68, 0.7)"/>
    <rect x="200" y="273" width="50" height="3" rx="1.5" fill="rgba(239, 68, 68, 0.5)"/>
    <!-- Priority indicator -->
    <circle cx="340" cy="270" r="4" fill="rgba(239, 68, 68, 0.8)"/>
  </g>
  
  <!-- Task 4 - Regular -->
  <g opacity="0.9">
    <rect x="160" y="300" width="192" height="40" rx="8" ry="8" fill="rgba(107, 114, 128, 0.03)" stroke="rgba(107, 114, 128, 0.2)" stroke-width="1"/>
    <circle cx="180" cy="320" r="8" fill="none" stroke="rgba(107, 114, 128, 0.5)" stroke-width="2"/>
    <rect x="200" y="315" width="110" height="4" rx="2" fill="rgba(107, 114, 128, 0.6)"/>
    <rect x="200" y="323" width="85" height="3" rx="1.5" fill="rgba(107, 114, 128, 0.4)"/>
  </g>
  
  <!-- Progress Bar at Bottom -->
  <rect x="160" y="360" width="192" height="8" rx="4" ry="4" fill="rgba(107, 114, 128, 0.1)"/>
  <rect x="160" y="360" width="96" height="8" rx="4" ry="4" fill="url(#checkGradient)"/>
  
  <!-- Sparkle/Star Elements -->
  <g filter="url(#glow)">
    <!-- Top left sparkle -->
    <path d="M180 100 L182 106 L188 108 L182 110 L180 116 L178 110 L172 108 L178 106 Z" fill="url(#sparkleGradient)" opacity="0.8"/>
    
    <!-- Top right sparkle -->
    <path d="M340 130 L341.5 134 L345.5 135.5 L341.5 137 L340 141 L338.5 137 L334.5 135.5 L338.5 134 Z" fill="url(#sparkleGradient)" opacity="0.9"/>
    
    <!-- Bottom right sparkle -->
    <path d="M350 380 L352 386 L358 388 L352 390 L350 396 L348 390 L342 388 L348 386 Z" fill="url(#sparkleGradient)" opacity="0.7"/>
    
    <!-- Small sparkles -->
    <circle cx="200" cy="90" r="2" fill="url(#sparkleGradient)" opacity="0.6"/>
    <circle cx="320" cy="410" r="1.5" fill="url(#sparkleGradient)" opacity="0.8"/>
    <circle cx="380" cy="180" r="2.5" fill="url(#sparkleGradient)" opacity="0.5"/>
  </g>
  
  <!-- Floating Plus Icon (Add Task) -->
  <g opacity="0.8">
    <circle cx="320" cy="350" r="20" fill="url(#bgGradient)" filter="url(#shadow)"/>
    <path d="M320 340 L320 360 M310 350 L330 350" stroke="white" stroke-width="3" stroke-linecap="round"/>
  </g>
  
  <!-- Subtle Brand Text Curve -->
  <defs>
    <path id="textcurve" d="M 100 450 Q 256 420 412 450"/>
  </defs>
  <text font-family="system-ui, -apple-system, sans-serif" font-size="24" font-weight="bold" fill="rgba(255,255,255,0.3)" opacity="0.6">
    <textPath href="#textcurve" startOffset="50%" text-anchor="middle">TaskFlow</textPath>
  </text>
</svg>